<svg width="600" height="400" viewBox="0 0 600 400" xmlns="http://www.w3.org/2000/svg">
  <!-- Background -->
  <rect width="600" height="400" fill="#f9fafb" rx="10" ry="10"/>
  
  <!-- Team Members -->
  <!-- Person 1 -->
  <circle cx="150" cy="150" r="70" fill="#dbeafe"/>
  <circle cx="150" cy="120" r="30" fill="#2563eb"/>
  <rect x="105" y="160" width="90" height="120" rx="45" ry="45" fill="#2563eb"/>
  <rect x="120" y="230" width="60" height="15" fill="white" rx="3" ry="3"/>
  <rect x="130" y="255" width="40" height="10" fill="white" rx="2" ry="2"/>
  
  <!-- Person 2 -->
  <circle cx="300" cy="150" r="70" fill="#dbeafe"/>
  <circle cx="300" cy="120" r="30" fill="#2563eb"/>
  <rect x="255" y="160" width="90" height="120" rx="45" ry="45" fill="#2563eb"/>
  <rect x="270" y="230" width="60" height="15" fill="white" rx="3" ry="3"/>
  <rect x="280" y="255" width="40" height="10" fill="white" rx="2" ry="2"/>
  
  <!-- Person 3 -->
  <circle cx="450" cy="150" r="70" fill="#dbeafe"/>
  <circle cx="450" cy="120" r="30" fill="#2563eb"/>
  <rect x="405" y="160" width="90" height="120" rx="45" ry="45" fill="#2563eb"/>
  <rect x="420" y="230" width="60" height="15" fill="white" rx="3" ry="3"/>
  <rect x="430" y="255" width="40" height="10" fill="white" rx="2" ry="2"/>
  
  <!-- Text Box -->
  <rect x="100" y="320" width="400" height="50" fill="white" rx="5" ry="5" stroke="#e5e7eb" stroke-width="2"/>
  <text x="300" y="350" font-family="Arial, sans-serif" font-size="14" fill="#4b5563" text-anchor="middle">The HR Genie Team - Building the Future of HR Automation</text>
</svg>